<?xml version="1.0" encoding="UTF-8"?>
<svg xmlns="http://www.w3.org/2000/svg" viewBox="0 0 74 44" width="74" height="44">
  <g stroke="#e6ac40" stroke-width="2" stroke-linecap="round" fill="none">
    <!-- Box 1 (left, tall) -->
    <rect x="7" y="15" width="16" height="20" fill="#ebbc66"/>
    <line x1="7"  y1="26" x2="23" y2="26"/>
    <line x1="15" y1="4"  x2="15" y2="15"/>
    <line x1="11" y1="4"  x2="19" y2="4"/>
    <line x1="15" y1="35" x2="15" y2="42"/>
    <line x1="11" y1="42" x2="19" y2="42"/>
    <!-- Box 2 (center, widest IQR) -->
    <rect x="29" y="9" width="16" height="26" fill="#ebbc66"/>
    <line x1="29" y1="19" x2="45" y2="19"/>
    <line x1="37" y1="2"  x2="37" y2="9"/>
    <line x1="33" y1="2"  x2="41" y2="2"/>
    <line x1="37" y1="35" x2="37" y2="42"/>
    <line x1="33" y1="42" x2="41" y2="42"/>
    <!-- Box 3 (right, compact) -->
    <rect x="51" y="18" width="16" height="14" fill="#ebbc66"/>
    <line x1="51" y1="26" x2="67" y2="26"/>
    <line x1="59" y1="9"  x2="59" y2="18"/>
    <line x1="55" y1="9"  x2="63" y2="9"/>
    <line x1="59" y1="32" x2="59" y2="40"/>
    <line x1="55" y1="40" x2="63" y2="40"/>
  </g>
</svg>
